#!OML:ASF H:\Not Pregnant\Project 1\Capture day 1\Session 1\non-pregnant.ASF
:FULLY-SPECIFIED
:DEGREES
3221
root 5.6556 8.6101 16.2902 64.0917 -8.99439 -11.326
lowerback 14.4306 6.92285 2.90654
upperback -6.70248 9.5775 -3.733
thorax -14.4619 3.95901 -8.32109
lowerneck 8.59878 -15.1798 -23.9265
upperneck -40.609 -15.5078 51.9771
head -4.24608 -11.9835 31.4868
rclavicle 2.22639e-014 1.35174e-014
rhumerus 8.11481 -4.52039 -87.9364
rradius 19.9315
rwrist 56.4211
rhand -59.7528 -1.44224
rfingers 7.12502
rthumb -31.9164 331.335
lclavicle 2.22639e-014 1.35174e-014
lhumerus 39.7766 -67.4156 26.0699
lradius 44.8102
lwrist 41.2747
lhand -42.1733 -35.7302
lfingers 7.12502
lthumb -15.0621 -6.2981
rfemur 8.58545 16.536 18.0606
rtibia 0
rfoot -0.336108 13.9043
rtoes -10.9582
lfemur -165.754 6.71302 -33.3766
ltibia 112.863
lfoot -9.95214 -5.81901
ltoes -10.1444
3222
root 5.65234 8.59174 16.3002 64.0411 -8.97063 -11.2781
lowerback 14.3797 6.89395 2.87435
upperback -6.88861 9.54332 -3.71007
thorax -14.6685 3.93129 -8.28844
lowerneck 8.36507 -15.2304 -23.8888
upperneck -40.9469 -15.472 51.9647
head -4.32657 -11.9436 31.5009
rclavicle -2.8625e-014 -4.09496e-014
rhumerus 7.59453 -3.75209 -87.7073
rradius 20.016
rwrist 55.561
rhand -59.5048 -1.26491
rfingers 7.12502
rthumb -31.6803 331.466
lclavicle -2.8625e-014 -4.09496e-014
lhumerus 39.4134 -67.8633 26.2807
lradius 44.9425
lwrist 41.0257
lhand -42.5118 -35.8425
lfingers 7.12502
lthumb -15.3882 -6.43518
rfemur 8.73028 16.5033 18.0971
rtibia 0
rfoot -0.390652 13.88
rtoes -11.131
lfemur -165.873 6.63731 -33.4122
ltibia 113.054
lfoot -9.86499 -5.86925
ltoes -9.84884
3223
root 5.64912 8.57365 16.3101 63.9901 -8.95327 -11.2225
lowerback 14.3303 6.86508 2.83339
upperback -7.07712 9.50789 -3.68409
thorax -14.8819 3.90361 -8.24793
lowerneck 8.12974 -15.2769 -23.8668
upperneck -41.2441 -15.4397 51.9552
head -4.38827 -11.9039 31.5074
rclavicle 6.36111e-015 3.97569e-016
rhumerus 7.07634 -2.84678 -87.4386
rradius 20.1011
rwrist 54.6187
rhand -59.2106 -1.12586
rfingers 7.12502
rthumb -31.4001 331.55
lclavicle 6.36111e-015 3.97569e-016
lhumerus 39.1576 -68.3253 26.3864
lradius 45.0404
lwrist 40.8464
lhand -42.7775 -35.8411
lfingers 7.12502
lthumb -15.6441 -6.45364
rfemur 8.87371 16.4666 18.1203
rtibia -2.8625e-014
rfoot -0.45663 13.8626
rtoes -11.3036
lfemur -165.984 6.55975 -33.4432
ltibia 113.24
lfoot -9.77735 -5.91051
ltoes -9.52918
3224
root 5.64622 8.55614 16.3195 63.9331 -8.91542 -11.1672
lowerback 14.2926 6.83303 2.82085
upperback -7.26772 9.47557 -3.65085
thorax -15.1021 3.87445 -8.21758
lowerneck 7.89875 -15.3172 -23.8544
upperneck -41.5021 -15.4066 51.9465
head -4.4372 -11.8626 31.5095
rclavicle 3.18055e-015 -3.97569e-016
rhumerus 6.5495 -1.9122 -87.1662
rradius 20.19
rwrist 53.7034
rhand -58.9315 -1.06554
rfingers 7.12502
rthumb -31.134 331.559
lclavicle 3.18055e-015 -3.97569e-016
lhumerus 39.0433 -68.81 26.3499
lradius 45.1054
lwrist 40.7678
lhand -42.9833 -35.793
lfingers 7.12502
lthumb -15.8423 -6.42111
rfemur 9.02216 16.4216 18.1616
rtibia 3.18055e-015
rfoot -0.528214 13.851
rtoes -11.4456
lfemur -166.08 6.47964 -33.4435
ltibia 113.419
lfoot -9.69051 -5.94424
ltoes -9.19343
3225
root 5.6437 8.54007 16.3283 63.9127 -8.85076 -11.1043
lowerback 14.2162 6.79461 2.83607
upperback -7.47355 9.44113 -3.61542
thorax -15.3135 3.84279 -8.19444
lowerneck 7.6657 -15.3532 -23.8515
upperneck -41.7098 -15.375 51.9323
head -4.46789 -11.8198 31.4902
rclavicle -4.21423e-014 1.86858e-014
rhumerus 6.02926 -0.999562 -86.908
rradius 20.2621
rwrist 52.8625
rhand -58.6399 -1.04638
rfingers 7.12502
rthumb -30.8561 331.525
lclavicle -4.21423e-014 1.86858e-014
lhumerus 39.0688 -69.3193 26.1652
lradius 45.1399
lwrist 40.7884
lhand -43.1371 -35.727
lfingers 7.12502
lthumb -15.9904 -6.36697
rfemur 9.12376 16.3569 18.2099
rtibia 1.90833e-014
rfoot -0.60021 13.8418
rtoes -11.5659
lfemur -166.185 6.37319 -33.4148
ltibia 113.571
lfoot -9.6022 -5.9686
ltoes -8.84632
3226
root 5.64146 8.52462 16.3367 63.8782 -8.77422 -11.0412
lowerback 14.1517 6.75194 2.8792
upperback -7.67681 9.40708 -3.57928
thorax -15.5257 3.80822 -8.18723
lowerneck 7.43853 -15.3812 -23.8549
upperneck -41.8747 -15.3402 51.9176
head -4.48695 -11.7742 31.4657
rclavicle -3.33958e-014 -9.93923e-015
rhumerus 5.52524 -0.17731 -86.6862
rradius 20.3128
rwrist 52.1513
rhand -58.3881 -1.12364
rfingers 7.12502
rthumb -30.6161 331.402
lclavicle -3.33958e-014 -9.93923e-015
lhumerus 39.2682 -69.8507 25.7843
lradius 45.1525
lwrist 40.907
lhand -43.2533 -35.6855
lfingers 7.12502
lthumb -16.1022 -6.33443
rfemur 9.2389 16.2872 18.2729
rtibia -3.18055e-015
rfoot -0.671936 13.831
rtoes -11.6402
lfemur -166.269 6.26814 -33.3646
ltibia 113.717
lfoot -9.5194 -5.98511
ltoes -8.51403
3227
root 5.63931 8.50995 16.3445 63.8352 -8.67463 -10.9826
lowerback 14.0881 6.70286 2.96291
upperback -7.87658 9.37305 -3.54227
thorax -15.7287 3.76999 -8.20039
lowerneck 7.21239 -15.4043 -23.8572
upperneck -41.9984 -15.303 51.8959
head -4.496 -11.7261 31.4232
rclavicle -3.49861e-014 -2.78299e-015
rhumerus 5.04406 0.522211 -86.5129
rradius 20.339
rwrist 51.5893
rhand -58.1488 -1.25355
rfingers 7.12502
rthumb -30.3878 331.23
lclavicle -3.49861e-014 -2.78299e-015
lhumerus 39.6308 -70.3921 25.2083
lradius 45.1526
lwrist 41.0861
lhand -43.3395 -35.6691
lfingers 7.12502
lthumb -16.1853 -6.32482
rfemur 9.3619 16.2114 18.3639
rtibia -1.27222e-014
rfoot -0.736051 13.8149
rtoes -11.6687
lfemur -166.34 6.16344 -33.2878
ltibia 113.854
lfoot -9.43466 -6.00371
ltoes -8.20419
3228
root 5.63696 8.49599 16.3519 63.7839 -8.5861 -10.9247
lowerback 14.0216 6.65428 3.05238
upperback -8.06877 9.33885 -3.51636
thorax -15.9187 3.73111 -8.22752
lowerneck 6.98891 -15.4221 -23.8457
upperneck -42.0918 -15.2586 51.8675
head -4.50387 -11.6745 31.3689
rclavicle 4.29375e-014 1.70955e-014
rhumerus 4.58584 1.09154 -86.3962
rradius 20.3513
rwrist 51.1527
rhand -57.8906 -1.40706
rfingers 7.12502
rthumb -30.1415 331.031
lclavicle 4.29375e-014 1.70955e-014
lhumerus 40.1507 -70.9265 24.4374
lradius 45.1461
lwrist 41.2798
lhand -43.389 -35.6606
lfingers 7.12502
lthumb -16.2329 -6.32021
rfemur 9.49015 16.141 18.4493
rtibia 9.54166e-015
rfoot -0.789979 13.7936
rtoes -11.6646
lfemur -166.401 6.06926 -33.2178
ltibia 113.988
lfoot -9.35987 -6.02031
ltoes -7.97072
3229
root 5.63424 8.48239 16.3589 63.7052 -8.51435 -10.8731
lowerback 13.9744 6.60804 3.14331
upperback -8.24766 9.30665 -3.49844
thorax -16.1034 3.69233 -8.26638
lowerneck 6.76885 -15.4335 -23.8285
upperneck -42.1597 -15.2076 51.8355
head -4.50997 -11.6191 31.3105
rclavicle -3.4191e-014 -6.75868e-015
rhumerus 4.14101 1.55144 -86.3321
rradius 20.367
rwrist 50.8047
rhand -57.6197 -1.54472
rfingers 7.12502
rthumb -29.883 330.847
lclavicle -3.4191e-014 -6.75868e-015
lhumerus 40.7761 -71.4388 23.5221
lradius 45.1407
lwrist 41.4433
lhand -43.386 -35.6105
lfingers 7.12502
lthumb -16.2301 -6.26989
rfemur 9.64762 16.0839 18.5332
rtibia 2.22639e-014
rfoot -0.836062 13.767
rtoes -11.6577
lfemur -166.443 5.9982 -33.1606
ltibia 114.125
lfoot -9.292 -6.04109
ltoes -7.82474
